<svg width="35" height="20" viewBox="0 0 35 20" fill="none" xmlns="http://www.w3.org/2000/svg">
<path d="M25.5595 9.78836C25.8823 9.94709 26.3127 10.1058 26.8507 10.2116C27.4425 10.3175 27.9805 10.4233 28.5722 10.4233C29.164 10.4233 29.702 10.3704 30.1862 10.2116C30.6704 10.0529 31.1008 9.84127 31.4236 9.57672C31.7464 9.31217 32.0692 8.99471 32.2306 8.57143C32.4458 8.20106 32.5534 7.77778 32.5534 7.30159C32.5534 6.71958 32.392 6.19048 32.0154 5.7672C31.6388 5.29101 31.1008 4.97355 30.24 4.709L28.626 4.17989C28.0343 3.96825 27.6039 3.75661 27.3887 3.54497C27.1735 3.33333 27.0659 3.06878 27.0659 2.75132C27.0659 2.27513 27.2273 1.95767 27.6039 1.74603C28.0343 1.5873 28.5185 1.48148 29.164 1.48148C29.971 1.48148 30.6704 1.64021 31.316 1.90476C31.5312 2.01058 31.6388 2.06349 31.7464 2.06349C31.9078 2.06349 32.0154 1.95767 32.0154 1.69312V1.16402C32.0154 1.00529 31.9616 0.899471 31.9078 0.793651C31.854 0.740741 31.7464 0.634921 31.585 0.529101C31.4774 0.476191 31.316 0.42328 31.1008 0.31746C30.8856 0.26455 30.6704 0.21164 30.4552 0.15873C30.24 0.10582 29.971 0.0529101 29.702 0.0529101C29.4868 0 29.2716 0 29.0026 0C28.5185 0 28.0343 0.0529101 27.6039 0.21164C27.1197 0.31746 26.7431 0.529101 26.3665 0.793651C26.0437 1.0582 25.7747 1.37566 25.5595 1.69312C25.3981 2.06349 25.2905 2.43386 25.2905 2.91005C25.2905 3.49206 25.4519 4.02116 25.8285 4.55027C26.2051 5.02646 26.7969 5.39683 27.6577 5.66138L29.3254 6.19048C29.8634 6.34921 30.24 6.56085 30.4552 6.77249C30.6704 6.98413 30.778 7.24868 30.778 7.56614C30.778 8.04233 30.5628 8.35979 30.1862 8.62434C29.8096 8.88889 29.2716 8.99471 28.5185 8.99471C28.0881 8.99471 27.6039 8.9418 27.1735 8.83598C26.7431 8.73016 26.3127 8.62434 25.9361 8.46561C25.8285 8.4127 25.7209 8.35979 25.6671 8.35979C25.6133 8.35979 25.5057 8.30688 25.4519 8.30688C25.2905 8.30688 25.1829 8.4127 25.1829 8.67725V9.25926C25.1829 9.36508 25.1829 9.4709 25.2367 9.57672C25.2905 9.62963 25.3981 9.73545 25.5595 9.78836Z" fill="#252F3E"/>
<path d="M6.46111 4.39153C6.03071 4.33862 5.65412 4.28571 5.27752 4.28571C4.09393 4.28571 3.17933 4.55026 2.47994 5.13228C1.78055 5.71429 1.45775 6.45503 1.45775 7.40741C1.45775 8.30688 1.72675 8.99471 2.26474 9.52381C2.80274 10.0529 3.55593 10.3175 4.52432 10.3175C5.86931 10.3175 6.9453 9.78836 7.8599 8.78307C7.9675 9.04762 8.0751 9.25926 8.18269 9.41799C8.29029 9.62963 8.45169 9.78836 8.61309 9.94709C8.72069 10.0529 8.82829 10.1058 8.93589 10.1058C9.04349 10.1058 9.15109 10.0529 9.25869 10L9.95808 9.52381C10.1195 9.41799 10.1733 9.31217 10.1733 9.20635C10.1733 9.15344 10.1733 9.04762 10.1195 8.9418C9.95808 8.67725 9.85048 8.4127 9.74288 8.14815C9.63528 7.8836 9.63528 7.56614 9.63528 7.14286V3.65079C9.63528 2.43386 9.31249 1.53439 8.72069 0.899471C8.0751 0.31746 7.1067 0 5.76171 0C5.06232 0 4.47052 0.0529101 3.93253 0.21164C3.39453 0.37037 2.91034 0.529101 2.53374 0.740741C2.37234 0.793651 2.26474 0.899471 2.21094 0.952381C2.15714 1.0582 2.10334 1.16402 2.10334 1.32275V1.85185C2.10334 2.06349 2.15714 2.22222 2.31854 2.22222C2.37234 2.22222 2.42614 2.22222 2.47994 2.16931C2.53374 2.16931 2.69514 2.1164 2.85654 2.01058C3.23313 1.85185 3.66353 1.74603 4.09393 1.64021C4.57812 1.5873 4.95472 1.53439 5.33132 1.53439C6.19211 1.53439 6.83771 1.69312 7.1605 2.06349C7.5371 2.43386 7.6985 3.01587 7.6985 3.86243V4.65609C7.2681 4.55026 6.83771 4.44444 6.46111 4.39153ZM7.7523 6.34921C7.7523 6.71958 7.6985 7.03704 7.6447 7.30159C7.5909 7.56614 7.4295 7.83069 7.2681 7.98942C6.9453 8.30688 6.62251 8.57143 6.19211 8.67725C5.76171 8.83598 5.38512 8.88889 5.00852 8.88889C4.47052 8.88889 4.09393 8.73016 3.82493 8.46561C3.55593 8.20106 3.39453 7.83069 3.39453 7.30159C3.39453 6.71958 3.55593 6.2963 3.93253 6.03175C4.30913 5.71429 4.84712 5.60847 5.60032 5.60847C5.92311 5.60847 6.29971 5.60847 6.67631 5.66138C7.0529 5.71429 7.3757 5.7672 7.6985 5.82011V6.34921H7.7523Z" fill="#252F3E"/>
<path d="M13.4007 9.62955C13.4545 9.84119 13.5621 9.99992 13.6159 10.0528C13.7235 10.1057 13.8311 10.1587 14.0463 10.1587H15.0685C15.2837 10.1587 15.4451 10.1057 15.4989 10.0528C15.6065 9.99992 15.6603 9.84119 15.7141 9.62955L17.4357 2.4867L19.2111 9.62955C19.2649 9.84119 19.3187 9.99992 19.4263 10.0528C19.5339 10.1057 19.6953 10.1587 19.8567 10.1587H20.8251C21.0403 10.1587 21.1479 10.1057 21.2555 10.0528C21.3631 9.99992 21.4169 9.84119 21.4707 9.62955L24.2145 1.00521C24.2683 0.899393 24.2683 0.793573 24.2683 0.740663C24.2683 0.687753 24.2683 0.634843 24.2683 0.581933C24.2683 0.423203 24.1607 0.317383 23.9993 0.317383H22.9233C22.7081 0.317383 22.5467 0.370293 22.4929 0.423203C22.3853 0.476113 22.3315 0.634843 22.2777 0.846483L20.4485 8.3068L18.6193 0.846483C18.5655 0.634843 18.5117 0.476113 18.4041 0.423203C18.2965 0.370293 18.1351 0.317383 17.9737 0.317383H17.0591C16.8439 0.317383 16.6825 0.370293 16.6287 0.423203C16.5211 0.476113 16.4673 0.634843 16.4135 0.846483L14.6381 8.20098L12.7014 0.846483C12.6476 0.634843 12.54 0.476113 12.4862 0.423203C12.3786 0.370293 12.271 0.317383 12.0558 0.317383H10.926C10.7646 0.317383 10.657 0.423203 10.657 0.581933C10.657 0.634843 10.7108 0.793573 10.7646 1.00521L13.4007 9.62955Z" fill="#252F3E"/>
<path d="M30.2402 15.0267C26.0438 16.7727 21.5247 17.6192 17.3821 17.6192C11.2489 17.6192 5.33099 15.9261 0.542827 13.2277C0.11243 12.9632 -0.210367 13.3864 0.16623 13.7039C4.63159 17.6722 10.4957 20.0002 17.0055 20.0002C21.6323 20.0002 27.066 18.5716 30.7782 15.8732C31.37 15.397 30.832 14.7621 30.2402 15.0267Z" fill="#FF9900"/>
<path d="M27.8726 13.4922C27.5498 13.7038 27.6036 14.0213 27.9802 13.9684C29.1638 13.8096 31.8538 13.4922 32.338 14.1271C32.8222 14.7091 31.8 17.1959 31.3696 18.307C31.2082 18.6244 31.531 18.7832 31.8538 18.5186C33.8444 16.8784 34.3824 13.4393 33.952 12.9102C33.4678 12.434 30.0246 12.0107 27.8726 13.4922Z" fill="#FF9900"/>
</svg>
