<svg width="29" height="31" viewBox="0 0 29 31" fill="none" xmlns="http://www.w3.org/2000/svg">
<path d="M28.8545 0H0V30.0485H28.8545V0Z" fill="#F59222"/>
<path d="M14.0204 24.433C12.0552 24.433 10.3057 23.6677 9.43496 22.4281C9.41898 22.4115 9.41099 22.4032 9.41099 22.4032C9.40301 22.4032 9.37105 22.4115 9.36306 22.4115C9.11542 22.4531 8.86778 22.4781 8.62812 22.4781C5.99192 22.4781 3.84301 20.2402 3.84301 17.4949C3.84301 15.8145 4.62588 14.2754 5.94399 13.3687C5.66439 12.8862 5.51261 12.3371 5.51261 11.7797C5.51261 10.2324 6.62301 8.91795 8.10088 8.73493C8.18076 8.72661 8.22071 8.72661 8.34852 8.71829C8.38048 8.71829 8.38847 8.70997 8.38847 8.70997C8.38847 8.70997 8.39645 8.70165 8.40444 8.6767C8.46036 8.54359 8.47634 8.51031 8.50829 8.44376C9.17134 7.01288 10.4096 6.12274 11.7516 6.12274C12.6224 6.12274 13.4612 6.48878 14.1082 7.14598C14.8352 6.36399 15.7698 5.9314 16.7524 5.9314C18.43 5.9314 19.9478 7.17094 20.4511 8.95122C21.8171 9.24239 22.8077 10.4986 22.8077 11.9461C22.8077 12.4702 22.7278 12.8612 22.5601 13.1856C23.974 14.1007 24.8208 15.6814 24.8208 17.4201C24.8208 20.1654 22.6719 22.4032 20.0357 22.4032C19.6522 22.4032 19.2768 22.3533 18.9013 22.2618C18.8854 22.2618 18.8454 22.2534 18.8055 22.2534C18.7575 22.2534 18.7256 22.2618 18.7096 22.2867C17.8229 23.6095 16.0255 24.433 14.0204 24.433ZM9.57076 20.6562C9.57875 20.7726 9.58674 20.9224 9.69858 21.122C9.76249 21.2385 9.84237 21.355 9.93025 21.4631C9.97019 21.513 10.0181 21.563 10.0581 21.6129L10.074 21.6295C10.13 21.6877 10.1779 21.7377 10.2258 21.7876C11.0087 22.503 12.2549 22.9356 13.573 22.9356C15.2266 22.9356 16.7205 22.2784 17.3675 21.2635C17.6072 20.8891 17.6232 20.781 17.6391 20.7227C17.6391 20.7061 17.6471 20.6978 17.6471 20.6811C17.3595 20.6479 17.08 20.5896 16.8083 20.5148C16.8004 20.5148 16.7764 20.5064 16.7444 20.5064C16.6725 20.5064 16.6326 20.5231 16.6246 20.5314C16.6166 20.5397 16.6086 20.5397 16.6006 20.548C15.7938 21.0389 14.8671 21.2967 13.9245 21.2967C13.0378 21.2967 12.167 21.0721 11.3921 20.6395C11.3762 20.6312 11.3043 20.6146 11.2324 20.6146C11.2084 20.6146 11.1924 20.6146 11.1924 20.6146C10.8649 20.6811 10.5454 20.7144 10.2338 20.7144C9.99415 20.7061 9.80243 20.6978 9.57076 20.6562ZM5.48864 15.0408C5.11318 15.6647 4.91347 16.3802 4.91347 17.1289C4.91347 19.3085 6.61502 21.0805 8.70801 21.0805C8.74795 21.0805 8.82783 21.0805 8.82783 21.0805V21.0721C8.81186 20.9141 8.79588 20.7477 8.79588 20.573V20.5314C8.79588 20.5064 8.79588 20.4898 8.79588 20.4732C6.79077 19.8409 5.4487 17.9358 5.4487 15.723C5.4487 15.49 5.46467 15.2654 5.48864 15.0408ZM19.4206 20.5397C19.5564 20.5563 19.6922 20.5647 19.82 20.5647C21.7452 20.5647 23.311 19.0506 23.311 17.1954C23.311 16.7795 23.2311 16.3635 23.0793 15.9809C22.9675 18.1272 21.4736 19.9907 19.4206 20.5397ZM16.5687 11.4303C16.6965 11.4303 16.8483 11.4969 17.032 11.6383C18.3741 12.6449 19.1809 14.2505 19.1809 15.9393C19.1809 17.1871 18.7735 18.3684 18.0386 19.2752C18.2463 19.2586 18.454 19.2087 18.6537 19.1421C20.0756 18.6513 21.0662 17.0124 21.0662 15.1489C21.0662 14.8661 21.0422 14.5749 20.9943 14.2838C20.9863 14.2255 20.9704 14.1673 20.9624 14.1007C20.9544 14.0508 20.9384 14.0009 20.9304 13.9427C20.9224 13.9011 20.9064 13.8595 20.8985 13.8179C20.8825 13.768 20.8665 13.7181 20.8505 13.6598C20.8345 13.6182 20.8186 13.5683 20.8106 13.5267C20.7946 13.4685 20.7706 13.4103 20.7467 13.352L20.7067 13.2522C20.6828 13.194 20.6588 13.144 20.6348 13.0858L20.6029 13.0193C20.4431 12.6782 20.2434 12.3704 20.0117 12.1042L19.9878 12.0792C19.9318 12.0126 19.8839 11.9711 19.844 11.9211L19.796 11.8712C19.7401 11.8213 19.6842 11.7631 19.6283 11.7132C19.5564 11.6549 19.5005 11.605 19.4445 11.5634C19.4206 11.5468 19.4046 11.5301 19.3886 11.5218C19.0531 11.239 18.9972 11.006 19.0052 10.4736C19.0052 10.3239 18.9892 10.1658 18.9652 9.97447C18.9493 9.88296 18.9333 9.78313 18.9093 9.69162L18.9013 9.66667C18.8854 9.60843 18.8774 9.56684 18.8614 9.52524C18.454 8.2441 17.4874 7.40387 16.3929 7.40387C15.7379 7.40387 14.9071 7.68672 14.4677 8.06108C14.4437 8.07772 14.4278 8.09436 14.4038 8.11932C14.3319 8.18587 14.2281 8.22746 14.1402 8.22746C14.0283 8.22746 13.9245 8.17755 13.8606 8.07772C13.4132 7.52034 12.9579 7.28741 12.3108 7.28741C12.2789 7.28741 12.2389 7.28741 12.207 7.28741C12.199 7.28741 12.183 7.28741 12.183 7.28741H12.1351C12.1111 7.28741 12.0871 7.28741 12.0632 7.28741C10.9688 7.28741 9.97019 8.06108 9.57875 9.2008C9.42697 9.64171 9.20329 9.77481 8.62013 9.77481C8.55622 9.77481 8.48433 9.77481 8.40444 9.7665C7.50174 9.7665 6.72686 10.4986 6.65496 11.4303C6.63898 11.5468 6.631 11.63 6.631 11.7048C6.631 12.0626 6.73485 12.4286 6.94255 12.778C7.03841 12.9361 7.05439 13.169 6.99048 13.352C6.9745 13.3936 6.95852 13.4269 6.94255 13.4685C6.92657 13.4934 6.91858 13.5184 6.91059 13.5517C6.91059 13.5517 6.87864 13.6266 6.87065 13.6598C6.85467 13.7014 6.84669 13.7347 6.83071 13.7763C6.6949 14.2089 6.62301 14.6415 6.62301 15.0824C6.62301 16.9375 7.82927 18.5431 9.49088 18.9092C9.50686 18.9092 9.52283 18.9175 9.5468 18.9175C9.25921 18.5015 9.02755 18.0606 8.88375 17.4117C8.84381 17.2537 8.86778 17.1122 8.94766 17.0124C9.00358 16.9375 9.09145 16.8876 9.18732 16.8876C9.2672 16.8876 9.41099 16.9209 9.52283 17.1289C10.2338 18.4932 11.5998 19.2752 13.2614 19.2752C15.642 19.2752 17.5752 17.3618 17.5752 15.0075C17.5752 13.976 17.1998 12.986 16.5128 12.204C16.3051 11.9711 16.2412 11.7714 16.3051 11.6133C16.329 11.5052 16.4409 11.4303 16.5687 11.4303ZM20.7227 10.457C20.7227 10.5402 20.7307 10.6317 20.7307 10.7149C20.7307 10.8979 20.7147 11.0809 20.6987 11.2556L20.6828 11.4386C20.9464 11.605 21.194 11.788 21.4257 11.996C21.4257 11.9711 21.4257 11.9544 21.4257 11.9295C21.4257 11.3388 21.1621 10.7981 20.7227 10.457Z" fill="white"/>
</svg>
