<svg width="11" height="11" viewBox="0 0 11 11" fill="none" xmlns="http://www.w3.org/2000/svg">
<path fill-rule="evenodd" clip-rule="evenodd" d="M6.80733 5.50003L10.7292 1.57812C11.0903 1.2171 11.0903 0.631779 10.7292 0.270814C10.3682 -0.0902025 9.78295 -0.0902025 9.42194 0.270814L5.49998 4.19277L1.57802 0.270762C1.21701 -0.0902541 0.631739 -0.0902541 0.270723 0.270762C-0.0902411 0.631779 -0.0902411 1.2171 0.270723 1.57807L4.19268 5.49997L0.270723 9.42194C-0.0902411 9.78295 -0.0902411 10.3683 0.270723 10.7292C0.631739 11.0903 1.21701 11.0903 1.57802 10.7292L5.49998 6.80728L9.42194 10.7292C9.7829 11.0903 10.3682 11.0903 10.7292 10.7292C11.0903 10.3682 11.0903 9.78295 10.7292 9.42194L6.80733 5.50003Z" fill="#EB5757"/>
</svg>
