<svg width="105" height="108" viewBox="0 0 105 108" fill="none" xmlns="http://www.w3.org/2000/svg">
<path fill-rule="evenodd" clip-rule="evenodd" d="M52.5 108C81.4275 108 105 83.754 105 54C105 24.246 81.4275 0 52.5 0C23.5725 0 0 24.246 0 54C0 83.754 23.5725 108 52.5 108Z" fill="#2196F3"/>
<path fill-rule="evenodd" clip-rule="evenodd" d="M60.2416 48.1311L68.6813 56.8446L70.0466 39.187L95.49 65.43C91.3445 83.5489 77.6423 97.9261 60.1919 102.462L17.1491 58.0491L36.1138 43.6975L45.3727 53.2567L56.6671 57.1265L49.6919 49.9251L60.2416 48.1311Z" fill="#2288D8"/>
<path fill-rule="evenodd" clip-rule="evenodd" d="M53.9531 49.5714L55.6484 48.3259C56.3211 47.8277 56.94 47.6339 57.855 47.6616H65.3896L73.866 62.7462L55.7291 76.1701C53.7378 77.637 51.7466 77.7754 49.7553 76.5022L55.9444 71.9076C56.3211 71.6308 56.4019 71.105 56.1328 70.7175C55.8637 70.33 55.3524 70.2469 54.9757 70.5237L48.3022 75.4781L45.7727 73.6237L52.0426 68.9737C52.4193 68.697 52.5 68.1711 52.2309 67.7836C51.9618 67.3961 51.4506 67.3131 51.0738 67.5898L44.3465 72.5719L41.9247 70.7728L48.1407 66.1506C48.5174 65.8738 48.5982 65.3479 48.3291 64.9604C48.06 64.5729 47.5487 64.4899 47.172 64.7667L40.4985 69.721L37.7537 67.7005L49.5131 58.9819C50.0244 58.5944 50.6433 58.5944 51.2084 58.8712L56.3211 61.8881C57.7473 62.6355 59.0659 63.106 60.6804 62.7738C62.0528 62.4971 63.2637 61.6667 64.1248 60.2828C64.9321 58.9266 64.6092 57.515 63.4252 56.5463L53.9531 49.5714ZM62.5103 57.9302C58.2048 54.7749 53.8724 51.6472 49.5669 48.4919C48.5713 47.7446 48.1138 47.6616 46.876 47.6616H39.5836L31.1071 62.7462L36.3545 66.6211L48.5713 57.5704C49.5669 56.823 50.9662 56.7123 52.0426 57.3489L57.1553 60.3935C58.1241 60.9471 59.2812 61.3069 60.3844 61.0855C61.3263 60.8917 62.1335 60.3105 62.7524 59.3418C63.0754 58.8435 62.9677 58.29 62.5103 57.9302ZM86.5402 56.657L76.2071 38.2234C75.8304 37.5591 74.9962 37.31 74.3234 37.6975L66.0623 42.6242C65.4165 43.0117 65.1743 43.8697 65.551 44.5616L75.8842 62.9953C76.2609 63.6595 77.0951 63.9086 77.7678 63.5212L86.029 58.6221C86.7017 58.1793 86.917 57.3213 86.5402 56.657ZM18.4598 56.657C18.0831 57.3213 18.2983 58.207 18.9711 58.5944L27.2322 63.4935C27.878 63.881 28.7391 63.6595 29.1159 62.9676L39.449 44.534C39.8257 43.8697 39.6105 42.984 38.9377 42.5965L30.6766 37.6975C30.0308 37.31 29.1697 37.5314 28.7929 38.2234L18.4598 56.657Z" fill="white"/>
</svg>
