<svg width="97" height="108" viewBox="0 0 97 108" fill="none" xmlns="http://www.w3.org/2000/svg">
<path d="M97 16.7865V17.7978C96.9023 32.6292 96.4137 49.5169 91.593 64.6854C91.2347 65.8315 90.8439 66.9775 90.4204 68.0899C84.4597 84.2697 74.0366 95.8315 57.9459 103.888C55.1122 105.303 52.1155 106.618 48.956 107.831L48.5 108L48.044 107.831C26.7418 99.7416 13.5826 87.1011 6.57958 68.0899C0.684016 52.0787 0.0977166 33.7079 0 17.764V16.7528L48.5326 0L97 16.7865Z" fill="#2196F3"/>
<path d="M64.8823 46.618H63.612V42.2696C63.612 33.6067 56.8044 26.5618 48.4333 26.5618C40.0623 26.5618 33.2547 33.6067 33.2547 42.2696V46.618H31.9844C29.8997 46.618 28.1734 48.4045 28.1734 50.5618V71.5281C28.1734 73.6854 29.8997 75.4719 31.9844 75.4719H64.8823C66.9669 75.4719 68.6932 73.6854 68.6932 71.5281V50.5618C68.6932 48.4045 66.9995 46.618 64.8823 46.618ZM38.9874 42.2696C38.9874 36.8764 43.2218 32.4944 48.4333 32.4944C53.6449 32.4944 57.8793 36.8764 57.8793 42.2696V46.618H38.9874V42.2696ZM49.7362 61.0112V64.2809C49.7362 65.0224 49.1499 65.6292 48.4659 65.6292C47.7493 65.6292 47.1956 65.0224 47.1956 64.2809V61.0112C46.5441 60.573 46.0881 59.7977 46.0881 58.955C46.0881 57.6067 47.163 56.4944 48.4659 56.4944C49.7688 56.4944 50.8437 57.6067 50.8437 58.955C50.8437 59.7977 50.3876 60.573 49.7362 61.0112Z" fill="white"/>
<path d="M59.1505 31.146C61.8866 33.9775 63.6129 37.9213 63.6129 42.2696V46.6179H64.8832C66.9678 46.6179 68.6941 48.4044 68.6941 50.5617V71.528C68.6941 73.6853 66.9678 75.4718 64.8832 75.4718H31.9853C30.943 75.4718 29.9658 75.0336 29.2818 74.2921L57.9127 103.921C74.0034 95.8651 84.4265 84.3033 90.3872 68.1235C90.8107 66.9775 91.2015 65.8651 91.5598 64.719L59.1505 31.146Z" fill="#2288D8"/>
</svg>
